<?xml version="1.0" encoding="iso-8859-1"?>
<!-- Generator: Adobe Illustrator 18.1.1, SVG Export Plug-In . SVG Version: 6.00 Build 0)  -->
<svg xmlns="http://www.w3.org/2000/svg" xmlns:xlink="http://www.w3.org/1999/xlink" version="1.1" id="Capa_1" x="0px" y="0px" viewBox="0 0 27.518 27.518" style="enable-background:new 0 0 27.518 27.518;" xml:space="preserve" width="512px" height="512px">
<g>
	<g id="c110_arrows">
		<path d="M27.359,13.3c-0.524-0.522-5.509-5.351-5.509-5.351s-0.666-0.669-0.666,0.215c0,0.889,0,2.301,0,2.301H6.334    c0,0,0-1.412,0-2.301c0-0.884-0.666-0.215-0.666-0.215S0.682,12.775,0.16,13.3c-0.383,0.383,0.044,0.742,0.044,0.742l5.339,5.489    c0,0,0.635,0.67,0.635-0.06c-0.004-0.729,0-2.489,0-2.489h15.163c0,0,0,1.763,0,2.489c0,0.729,0.637,0.057,0.637,0.057l5.34-5.485    C27.317,14.043,27.74,13.682,27.359,13.3z" fill="#FFFFFF"/>
	</g>
	<g id="Capa_1_136_">
	</g>
</g>
<g>
</g>
<g>
</g>
<g>
</g>
<g>
</g>
<g>
</g>
<g>
</g>
<g>
</g>
<g>
</g>
<g>
</g>
<g>
</g>
<g>
</g>
<g>
</g>
<g>
</g>
<g>
</g>
<g>
</g>
</svg>
